<svg width="186" height="33" viewBox="0 0 186 33" fill="none" xmlns="http://www.w3.org/2000/svg">
<g filter="url(#filter0_b_104_62)">
<path d="M16.6 1.344V6.976H7.704V10.112H14.104V15.456H7.704V24H0.6V1.344H16.6ZM18.0463 14.976C18.0463 13.0773 18.3663 11.4347 19.0063 10.048C19.6676 8.64 20.5636 7.57333 21.6943 6.848C22.8249 6.10133 24.0943 5.728 25.5023 5.728C26.6756 5.728 27.6889 5.97333 28.5423 6.464C29.3956 6.93333 30.0463 7.584 30.4943 8.416V5.952H37.5663V24H30.4943V21.536C30.0463 22.368 29.3956 23.0293 28.5423 23.52C27.6889 23.9893 26.6756 24.224 25.5023 24.224C24.0943 24.224 22.8249 23.8613 21.6943 23.136C20.5636 22.3893 19.6676 21.3227 19.0063 19.936C18.3663 18.528 18.0463 16.8747 18.0463 14.976ZM30.4943 14.976C30.4943 14.016 30.2489 13.2693 29.7583 12.736C29.2676 12.2027 28.6383 11.936 27.8703 11.936C27.1023 11.936 26.4729 12.2027 25.9823 12.736C25.4916 13.2693 25.2463 14.016 25.2463 14.976C25.2463 15.936 25.4916 16.6827 25.9823 17.216C26.4729 17.7493 27.1023 18.016 27.8703 18.016C28.6383 18.016 29.2676 17.7493 29.7583 17.216C30.2489 16.6827 30.4943 15.936 30.4943 14.976ZM47.8603 0.32V24H40.7563V0.32H47.8603ZM59.1008 24.224C57.3941 24.224 55.8794 23.9467 54.5568 23.392C53.2554 22.8373 52.2208 22.0693 51.4528 21.088C50.6848 20.1067 50.2474 18.9973 50.1408 17.76H56.9568C57.0421 18.2933 57.2661 18.688 57.6288 18.944C58.0128 19.2 58.4928 19.328 59.0688 19.328C59.4314 19.328 59.7194 19.2533 59.9328 19.104C60.1461 18.9333 60.2528 18.7307 60.2528 18.496C60.2528 18.0907 60.0288 17.8027 59.5808 17.632C59.1328 17.4613 58.3754 17.2693 57.3088 17.056C56.0074 16.8 54.9301 16.5227 54.0768 16.224C53.2448 15.9253 52.5088 15.4133 51.8688 14.688C51.2501 13.9627 50.9408 12.96 50.9408 11.68C50.9408 10.5707 51.2288 9.568 51.8048 8.672C52.4021 7.75467 53.2768 7.04 54.4288 6.528C55.5808 5.99467 56.9781 5.728 58.6208 5.728C61.0528 5.728 62.9514 6.32533 64.3168 7.52C65.7034 8.71467 66.5354 10.272 66.8128 12.192H60.5088C60.4021 11.7013 60.1781 11.328 59.8368 11.072C59.4954 10.7947 59.0368 10.656 58.4608 10.656C58.0981 10.656 57.8208 10.7307 57.6288 10.88C57.4368 11.008 57.3408 11.2107 57.3408 11.488C57.3408 11.8507 57.5648 12.128 58.0128 12.32C58.4608 12.4907 59.1754 12.672 60.1568 12.864C61.4581 13.12 62.5568 13.408 63.4528 13.728C64.3488 14.048 65.1274 14.6027 65.7888 15.392C66.4501 16.16 66.7808 17.2267 66.7808 18.592C66.7808 19.6587 66.4714 20.6187 65.8528 21.472C65.2341 22.3253 64.3381 22.9973 63.1648 23.488C62.0128 23.9787 60.6581 24.224 59.1008 24.224ZM89.984 5.952L78.432 32.64H70.656L75.2 23.104L67.68 5.952H75.584L78.976 15.104L82.144 5.952H89.984Z" fill="#FF304F"/>
<path d="M118.422 24H111.318L103.798 12.608V24H96.6938V1.344H103.798L111.318 12.928V1.344H118.422V24ZM139.103 14.816C139.103 15.3067 139.071 15.776 139.007 16.224H127.583C127.69 17.7813 128.341 18.56 129.535 18.56C130.303 18.56 130.858 18.208 131.199 17.504H138.719C138.463 18.784 137.919 19.936 137.087 20.96C136.277 21.9627 135.242 22.7627 133.983 23.36C132.746 23.936 131.381 24.224 129.887 24.224C128.095 24.224 126.495 23.8507 125.087 23.104C123.701 22.3573 122.613 21.2907 121.823 19.904C121.055 18.496 120.671 16.8533 120.671 14.976C120.671 13.0987 121.055 11.4667 121.823 10.08C122.613 8.672 123.701 7.59467 125.087 6.848C126.495 6.10133 128.095 5.728 129.887 5.728C131.679 5.728 133.269 6.10133 134.655 6.848C136.063 7.57333 137.151 8.61867 137.919 9.984C138.709 11.3493 139.103 12.96 139.103 14.816ZM131.903 13.12C131.903 12.5227 131.711 12.0747 131.327 11.776C130.943 11.456 130.463 11.296 129.887 11.296C128.629 11.296 127.893 11.904 127.679 13.12H131.903ZM168.742 5.952L164.454 24H156.454L154.278 13.824L151.974 24H143.974L139.718 5.952H146.758L148.262 16.928L150.598 5.952H158.182L160.646 17.056L162.182 5.952H168.742ZM178.288 24.224C176.582 24.224 175.067 23.9467 173.744 23.392C172.443 22.8373 171.408 22.0693 170.64 21.088C169.872 20.1067 169.435 18.9973 169.328 17.76H176.144C176.23 18.2933 176.454 18.688 176.816 18.944C177.2 19.2 177.68 19.328 178.256 19.328C178.619 19.328 178.907 19.2533 179.12 19.104C179.334 18.9333 179.44 18.7307 179.44 18.496C179.44 18.0907 179.216 17.8027 178.768 17.632C178.32 17.4613 177.563 17.2693 176.496 17.056C175.195 16.8 174.118 16.5227 173.264 16.224C172.432 15.9253 171.696 15.4133 171.056 14.688C170.438 13.9627 170.128 12.96 170.128 11.68C170.128 10.5707 170.416 9.568 170.992 8.672C171.59 7.75467 172.464 7.04 173.616 6.528C174.768 5.99467 176.166 5.728 177.808 5.728C180.24 5.728 182.139 6.32533 183.504 7.52C184.891 8.71467 185.723 10.272 186 12.192H179.696C179.59 11.7013 179.366 11.328 179.024 11.072C178.683 10.7947 178.224 10.656 177.648 10.656C177.286 10.656 177.008 10.7307 176.816 10.88C176.624 11.008 176.528 11.2107 176.528 11.488C176.528 11.8507 176.752 12.128 177.2 12.32C177.648 12.4907 178.363 12.672 179.344 12.864C180.646 13.12 181.744 13.408 182.64 13.728C183.536 14.048 184.315 14.6027 184.976 15.392C185.638 16.16 185.968 17.2267 185.968 18.592C185.968 19.6587 185.659 20.6187 185.04 21.472C184.422 22.3253 183.526 22.9973 182.352 23.488C181.2 23.9787 179.846 24.224 178.288 24.224Z" fill="#002651"/>
<path d="M16.6 1.344H16.85V1.094H16.6V1.344ZM16.6 6.976V7.226H16.85V6.976H16.6ZM7.704 6.976V6.726H7.454V6.976H7.704ZM7.704 10.112H7.454V10.362H7.704V10.112ZM14.104 10.112H14.354V9.862H14.104V10.112ZM14.104 15.456V15.706H14.354V15.456H14.104ZM7.704 15.456V15.206H7.454V15.456H7.704ZM7.704 24V24.25H7.954V24H7.704ZM0.6 24H0.35V24.25H0.6V24ZM0.6 1.344V1.094H0.35V1.344H0.6ZM16.35 1.344V6.976H16.85V1.344H16.35ZM16.6 6.726H7.704V7.226H16.6V6.726ZM7.454 6.976V10.112H7.954V6.976H7.454ZM7.704 10.362H14.104V9.862H7.704V10.362ZM13.854 10.112V15.456H14.354V10.112H13.854ZM14.104 15.206H7.704V15.706H14.104V15.206ZM7.454 15.456V24H7.954V15.456H7.454ZM7.704 23.75H0.6V24.25H7.704V23.75ZM0.85 24V1.344H0.35V24H0.85ZM0.6 1.594H16.6V1.094H0.6V1.594ZM19.0063 10.048L18.78 9.94171L18.7793 9.94323L19.0063 10.048ZM21.6943 6.848L21.8293 7.05844L21.832 7.05662L21.6943 6.848ZM28.5423 6.464L28.4176 6.68076L28.4218 6.68305L28.5423 6.464ZM30.4943 8.416L30.2741 8.53452L30.7443 8.416H30.4943ZM30.4943 5.952V5.702H30.2443V5.952H30.4943ZM37.5663 5.952H37.8163V5.702H37.5663V5.952ZM37.5663 24V24.25H37.8163V24H37.5663ZM30.4943 24H30.2443V24.25H30.4943V24ZM30.4943 21.536H30.7443L30.2741 21.4175L30.4943 21.536ZM28.5423 23.52L28.6628 23.7391L28.6669 23.7367L28.5423 23.52ZM21.6943 23.136L21.5565 23.3446L21.5593 23.3464L21.6943 23.136ZM19.0063 19.936L18.7786 20.0395L18.7806 20.0436L19.0063 19.936ZM29.7583 12.736L29.9422 12.5667L29.9422 12.5667L29.7583 12.736ZM25.9823 12.736L25.7983 12.5667L25.7983 12.5667L25.9823 12.736ZM18.2963 14.976C18.2963 13.1049 18.6116 11.4996 19.2332 10.1528L18.7793 9.94323C18.1209 11.3697 17.7963 13.0497 17.7963 14.976H18.2963ZM19.2325 10.1543C19.8771 8.78203 20.7441 7.75452 21.8292 7.05842L21.5593 6.63758C20.383 7.39214 19.4581 8.49797 18.78 9.94172L19.2325 10.1543ZM21.832 7.05662C22.9201 6.33804 24.1412 5.978 25.5023 5.978V5.478C24.0473 5.478 22.7297 5.86463 21.5565 6.63938L21.832 7.05662ZM25.5023 5.978C26.6403 5.978 27.6089 6.2157 28.4176 6.68073L28.6669 6.24727C27.7689 5.73096 26.7109 5.478 25.5023 5.478V5.978ZM28.4218 6.68305C29.2343 7.12993 29.8497 7.74628 30.2741 8.53452L30.7144 8.29747C30.2428 7.42171 29.5569 6.73674 28.6627 6.24494L28.4218 6.68305ZM30.7443 8.416V5.952H30.2443V8.416H30.7443ZM30.4943 6.202H37.5663V5.702H30.4943V6.202ZM37.3163 5.952V24H37.8163V5.952H37.3163ZM37.5663 23.75H30.4943V24.25H37.5663V23.75ZM30.7443 24V21.536H30.2443V24H30.7443ZM30.2741 21.4175C29.8491 22.2067 29.2324 22.8348 28.4176 23.3033L28.6669 23.7367C29.5588 23.2239 30.2434 22.5293 30.7144 21.6545L30.2741 21.4175ZM28.4218 23.3009C27.6122 23.7462 26.642 23.974 25.5023 23.974V24.474C26.7091 24.474 27.7656 24.2325 28.6627 23.7391L28.4218 23.3009ZM25.5023 23.974C24.1397 23.974 22.9176 23.6238 21.8292 22.9256L21.5593 23.3464C22.7322 24.0989 24.0488 24.474 25.5023 24.474V23.974ZM21.832 22.9274C20.7442 22.209 19.8763 21.1796 19.2319 19.8284L18.7806 20.0436C19.4588 21.4657 20.383 22.5697 21.5565 23.3446L21.832 22.9274ZM19.2338 19.8325C18.6116 18.4636 18.2963 16.8469 18.2963 14.976H17.7963C17.7963 16.9024 18.1209 18.5924 18.7787 20.0395L19.2338 19.8325ZM30.7443 14.976C30.7443 13.9741 30.4876 13.1595 29.9422 12.5667L29.5743 12.9053C30.0102 13.3791 30.2443 14.0579 30.2443 14.976H30.7443ZM29.9422 12.5667C29.4011 11.9786 28.7035 11.686 27.8703 11.686V12.186C28.573 12.186 29.134 12.4267 29.5743 12.9053L29.9422 12.5667ZM27.8703 11.686C27.037 11.686 26.3394 11.9786 25.7983 12.5667L26.1662 12.9053C26.6065 12.4267 27.1675 12.186 27.8703 12.186V11.686ZM25.7983 12.5667C25.2529 13.1595 24.9963 13.9741 24.9963 14.976H25.4963C25.4963 14.0579 25.7303 13.3791 26.1662 12.9053L25.7983 12.5667ZM24.9963 14.976C24.9963 15.9779 25.2529 16.7925 25.7983 17.3853L26.1662 17.0467C25.7303 16.5729 25.4963 15.8941 25.4963 14.976H24.9963ZM25.7983 17.3853C26.3394 17.9734 27.037 18.266 27.8703 18.266V17.766C27.1675 17.766 26.6065 17.5253 26.1662 17.0467L25.7983 17.3853ZM27.8703 18.266C28.7035 18.266 29.4011 17.9734 29.9422 17.3853L29.5743 17.0467C29.134 17.5253 28.573 17.766 27.8703 17.766V18.266ZM29.9422 17.3853C30.4876 16.7925 30.7443 15.9779 30.7443 14.976H30.2443C30.2443 15.8941 30.0102 16.5729 29.5743 17.0467L29.9422 17.3853ZM47.8603 0.32H48.1103V0.0699997H47.8603V0.32ZM47.8603 24V24.25H48.1103V24H47.8603ZM40.7563 24H40.5063V24.25H40.7563V24ZM40.7563 0.32V0.0699997H40.5063V0.32H40.7563ZM47.6103 0.32V24H48.1103V0.32H47.6103ZM47.8603 23.75H40.7563V24.25H47.8603V23.75ZM41.0063 24V0.32H40.5063V24H41.0063ZM40.7563 0.57H47.8603V0.0699997H40.7563V0.57ZM54.5568 23.392L54.4587 23.622L54.4601 23.6225L54.5568 23.392ZM50.1408 17.76V17.51H49.8683L49.8917 17.7815L50.1408 17.76ZM56.9568 17.76L57.2036 17.7205L57.1699 17.51H56.9568V17.76ZM57.6288 18.944L57.4845 19.1483L57.4901 19.152L57.6288 18.944ZM59.9328 19.104L60.0761 19.3088L60.0827 19.3042L60.0889 19.2992L59.9328 19.104ZM57.3088 17.056L57.3578 16.8109L57.357 16.8107L57.3088 17.056ZM54.0768 16.224L53.9923 16.4593L53.9942 16.46L54.0768 16.224ZM51.8688 14.688L51.6785 14.8503L51.6813 14.8534L51.8688 14.688ZM51.8048 8.672L51.5952 8.53558L51.5945 8.53681L51.8048 8.672ZM54.4288 6.528L54.5303 6.75648L54.5338 6.75487L54.4288 6.528ZM64.3168 7.52L64.1521 7.70815L64.1536 7.7094L64.3168 7.52ZM66.8128 12.192V12.442H67.1015L67.0602 12.1563L66.8128 12.192ZM60.5088 12.192L60.2645 12.2451L60.3073 12.442H60.5088V12.192ZM59.8368 11.072L59.679 11.2662L59.6868 11.272L59.8368 11.072ZM57.6288 10.88L57.7674 11.088L57.775 11.0829L57.7822 11.0773L57.6288 10.88ZM58.0128 12.32L57.9142 12.55L57.9238 12.5536L58.0128 12.32ZM60.1568 12.864L60.205 12.6187L60.2048 12.6187L60.1568 12.864ZM63.4528 13.728L63.3687 13.9634L63.3687 13.9634L63.4528 13.728ZM65.7888 15.392L65.5971 15.5526L65.5993 15.5551L65.7888 15.392ZM65.8528 21.472L66.0552 21.6187L66.0552 21.6187L65.8528 21.472ZM63.1648 23.488L63.0683 23.2574L63.0668 23.258L63.1648 23.488ZM59.1008 23.974C57.4211 23.974 55.9402 23.7011 54.6534 23.1615L54.4601 23.6225C55.8186 24.1922 57.3671 24.474 59.1008 24.474V23.974ZM54.6548 23.162C53.3869 22.6216 52.3883 21.8777 51.6496 20.9339L51.2559 21.2421C52.0532 22.2609 53.1239 23.053 54.4587 23.622L54.6548 23.162ZM51.6496 20.9339C50.9114 19.9907 50.4923 18.9274 50.3898 17.7385L49.8917 17.7815C50.0025 19.0673 50.4581 20.2227 51.2559 21.2421L51.6496 20.9339ZM50.1408 18.01H56.9568V17.51H50.1408V18.01ZM56.7099 17.7995C56.8034 18.3839 57.0553 18.8452 57.4846 19.1482L57.7729 18.7398C57.4768 18.5308 57.2808 18.2027 57.2036 17.7205L56.7099 17.7995ZM57.4901 19.152C57.9243 19.4415 58.4557 19.578 59.0688 19.578V19.078C58.5298 19.078 58.1012 18.9585 57.7674 18.736L57.4901 19.152ZM59.0688 19.578C59.4632 19.578 59.8072 19.4971 60.0761 19.3088L59.7894 18.8992C59.6317 19.0096 59.3997 19.078 59.0688 19.078V19.578ZM60.0889 19.2992C60.3506 19.0898 60.5028 18.8196 60.5028 18.496H60.0028C60.0028 18.6418 59.9415 18.7768 59.7766 18.9088L60.0889 19.2992ZM60.5028 18.496C60.5028 18.2443 60.432 18.0153 60.2821 17.8225C60.1345 17.6327 59.9234 17.495 59.6697 17.3984L59.4918 17.8656C59.6861 17.9397 59.811 18.0313 59.8874 18.1295C59.9615 18.2247 60.0028 18.3424 60.0028 18.496H60.5028ZM59.6697 17.3984C59.2006 17.2197 58.4254 17.0244 57.3578 16.8109L57.2597 17.3011C58.3255 17.5143 59.0649 17.703 59.4918 17.8656L59.6697 17.3984ZM57.357 16.8107C56.0625 16.556 54.9976 16.2814 54.1593 15.988L53.9942 16.46C54.8626 16.7639 55.9524 17.044 57.2605 17.3013L57.357 16.8107ZM54.1612 15.9887C53.3726 15.7056 52.671 15.2194 52.0562 14.5226L51.6813 14.8534C52.3465 15.6073 53.1169 16.1451 53.9923 16.4593L54.1612 15.9887ZM52.059 14.5258C51.4904 13.8592 51.1908 12.921 51.1908 11.68H50.6908C50.6908 12.9989 51.0098 14.0662 51.6785 14.8502L52.059 14.5258ZM51.1908 11.68C51.1908 10.6165 51.4661 9.66114 52.015 8.80719L51.5945 8.53681C50.9914 9.47486 50.6908 10.5248 50.6908 11.68H51.1908ZM52.0142 8.80842C52.5814 7.9374 53.4155 7.25189 54.5303 6.75645L54.3272 6.29955C53.138 6.82811 52.2227 7.57193 51.5953 8.53558L52.0142 8.80842ZM54.5338 6.75487C55.6447 6.24056 57.0041 5.978 58.6208 5.978V5.478C56.9521 5.478 55.5168 5.74877 54.3237 6.30113L54.5338 6.75487ZM58.6208 5.978C61.013 5.978 62.8459 6.56522 64.1521 7.70814L64.4814 7.33185C63.0569 6.08544 61.0925 5.478 58.6208 5.478V5.978ZM64.1536 7.7094C65.4916 8.8622 66.296 10.3636 66.5653 12.2277L67.0602 12.1563C66.7748 10.1804 65.9152 8.56713 64.4799 7.3306L64.1536 7.7094ZM66.8128 11.942H60.5088V12.442H66.8128V11.942ZM60.753 12.1389C60.636 11.6005 60.3844 11.1702 59.9867 10.872L59.6868 11.272C59.9718 11.4858 60.1682 11.8022 60.2645 12.2451L60.753 12.1389ZM59.9944 10.878C59.5963 10.5545 59.0762 10.406 58.4608 10.406V10.906C58.9973 10.906 59.3945 11.0348 59.6791 11.266L59.9944 10.878ZM58.4608 10.406C58.0686 10.406 57.7281 10.486 57.4753 10.6827L57.7822 11.0773C57.9134 10.9753 58.1276 10.906 58.4608 10.906V10.406ZM57.4901 10.672C57.2138 10.8562 57.0908 11.1465 57.0908 11.488H57.5908C57.5908 11.2749 57.6597 11.1598 57.7674 11.088L57.4901 10.672ZM57.0908 11.488C57.0908 11.7254 57.1657 11.9411 57.3143 12.1251C57.4595 12.3049 57.6659 12.4433 57.9143 12.5498L58.1112 12.0902C57.9116 12.0047 57.782 11.9084 57.7032 11.8109C57.6278 11.7176 57.5908 11.6132 57.5908 11.488H57.0908ZM57.9238 12.5536C58.3928 12.7323 59.1251 12.9169 60.1087 13.1093L60.2048 12.6187C59.2258 12.4271 58.5287 12.249 58.1017 12.0864L57.9238 12.5536ZM60.1085 13.1093C61.402 13.3638 62.4879 13.6489 63.3687 13.9634L63.5368 13.4926C62.6256 13.1671 61.5142 12.8762 60.205 12.6187L60.1085 13.1093ZM63.3687 13.9634C64.2194 14.2673 64.9619 14.7944 65.5971 15.5526L65.9804 15.2314C65.2929 14.4109 64.4781 13.8287 63.5368 13.4926L63.3687 13.9634ZM65.5993 15.5551C66.2098 16.2641 66.5308 17.2656 66.5308 18.592H67.0308C67.0308 17.1877 66.6904 16.0559 65.9782 15.2289L65.5993 15.5551ZM66.5308 18.592C66.5308 19.6066 66.2377 20.5151 65.6503 21.3253L66.0552 21.6187C66.7052 20.7222 67.0308 19.7107 67.0308 18.592H66.5308ZM65.6503 21.3253C65.0637 22.1344 64.2081 22.7807 63.0683 23.2574L63.2612 23.7186C64.4681 23.2139 65.4045 22.5163 66.0552 21.6187L65.6503 21.3253ZM63.0668 23.258C61.9523 23.7327 60.6324 23.974 59.1008 23.974V24.474C60.6838 24.474 62.0732 24.2247 63.2627 23.718L63.0668 23.258ZM89.984 5.952L90.2134 6.05131L90.3646 5.702H89.984V5.952ZM78.432 32.64V32.89H78.5962L78.6614 32.7393L78.432 32.64ZM70.656 32.64L70.4303 32.5325L70.2599 32.89H70.656V32.64ZM75.2 23.104L75.4257 23.2115L75.4749 23.1083L75.429 23.0036L75.2 23.104ZM67.68 5.952V5.702H67.2974L67.451 6.05238L67.68 5.952ZM75.584 5.952L75.8184 5.86512L75.758 5.702H75.584V5.952ZM78.976 15.104L78.7416 15.1909L78.984 15.845L79.2122 15.1858L78.976 15.104ZM82.144 5.952V5.702H81.966L81.9078 5.87022L82.144 5.952ZM89.7546 5.85269L78.2026 32.5407L78.6614 32.7393L90.2134 6.05131L89.7546 5.85269ZM78.432 32.39H70.656V32.89H78.432V32.39ZM70.8817 32.7475L75.4257 23.2115L74.9743 22.9965L70.4303 32.5325L70.8817 32.7475ZM75.429 23.0036L67.909 5.85162L67.451 6.05238L74.971 23.2044L75.429 23.0036ZM67.68 6.202H75.584V5.702H67.68V6.202ZM75.3496 6.03888L78.7416 15.1909L79.2104 15.0171L75.8184 5.86512L75.3496 6.03888ZM79.2122 15.1858L82.3802 6.03378L81.9078 5.87022L78.7398 15.0222L79.2122 15.1858ZM82.144 6.202H89.984V5.702H82.144V6.202ZM118.422 24V24.25H118.672V24H118.422ZM111.318 24L111.109 24.1377L111.183 24.25H111.318V24ZM103.798 12.608L104.006 12.4703L103.548 11.7755V12.608H103.798ZM103.798 24V24.25H104.048V24H103.798ZM96.6938 24H96.4438V24.25H96.6938V24ZM96.6938 1.344V1.094H96.4438V1.344H96.6938ZM103.798 1.344L104.007 1.20787L103.934 1.094H103.798V1.344ZM111.318 12.928L111.108 13.0641L111.568 13.7722V12.928H111.318ZM111.318 1.344V1.094H111.068V1.344H111.318ZM118.422 1.344H118.672V1.094H118.422V1.344ZM118.422 23.75H111.318V24.25H118.422V23.75ZM111.526 23.8623L104.006 12.4703L103.589 12.7457L111.109 24.1377L111.526 23.8623ZM103.548 12.608V24H104.048V12.608H103.548ZM103.798 23.75H96.6938V24.25H103.798V23.75ZM96.9438 24V1.344H96.4438V24H96.9438ZM96.6938 1.594H103.798V1.094H96.6938V1.594ZM103.588 1.48012L111.108 13.0641L111.527 12.7919L104.007 1.20787L103.588 1.48012ZM111.568 12.928V1.344H111.068V12.928H111.568ZM111.318 1.594H118.422V1.094H111.318V1.594ZM118.172 1.344V24H118.672V1.344H118.172ZM139.007 16.224V16.474H139.224L139.255 16.2594L139.007 16.224ZM127.583 16.224V15.974H127.316L127.334 16.2411L127.583 16.224ZM131.199 17.504V17.254H131.043L130.974 17.3949L131.199 17.504ZM138.719 17.504L138.964 17.553L139.024 17.254H138.719V17.504ZM137.087 20.96L136.893 20.8024L136.893 20.8028L137.087 20.96ZM133.983 23.36L134.089 23.5867L134.09 23.5859L133.983 23.36ZM125.087 23.104L124.969 23.3241L124.97 23.3249L125.087 23.104ZM121.823 19.904L121.604 20.0237L121.606 20.0277L121.823 19.904ZM121.823 10.08L121.605 9.95775L121.605 9.95887L121.823 10.08ZM125.087 6.848L124.97 6.62713L124.969 6.62788L125.087 6.848ZM134.655 6.848L134.537 7.06815L134.541 7.07024L134.655 6.848ZM137.919 9.984L137.701 10.1066L137.703 10.1091L137.919 9.984ZM131.903 13.12V13.37H132.153V13.12H131.903ZM131.327 11.776L131.167 11.9682L131.174 11.9733L131.327 11.776ZM127.679 13.12L127.433 13.0768L127.382 13.37H127.679V13.12ZM138.853 14.816C138.853 15.2958 138.822 15.7533 138.76 16.1886L139.255 16.2594C139.321 15.7987 139.353 15.3175 139.353 14.816H138.853ZM139.007 15.974H127.583V16.474H139.007V15.974ZM127.334 16.2411C127.389 17.0458 127.586 17.69 127.959 18.1363C128.341 18.5928 128.878 18.81 129.535 18.81V18.31C128.997 18.31 128.612 18.1379 128.343 17.8157C128.065 17.4833 127.884 16.9595 127.833 16.2069L127.334 16.2411ZM129.535 18.81C129.959 18.81 130.337 18.7125 130.661 18.5071C130.985 18.3018 131.237 17.9988 131.424 17.6131L130.974 17.3949C130.82 17.7132 130.624 17.9382 130.393 18.0849C130.162 18.2315 129.88 18.31 129.535 18.31V18.81ZM131.199 17.754H138.719V17.254H131.199V17.754ZM138.474 17.455C138.226 18.6947 137.7 19.8095 136.893 20.8024L137.281 21.1176C138.139 20.0625 138.7 18.8733 138.964 17.553L138.474 17.455ZM136.893 20.8028C136.108 21.774 135.104 22.5516 133.876 23.1341L134.09 23.5859C135.38 22.9738 136.446 22.1513 137.282 21.1172L136.893 20.8028ZM133.878 23.1334C132.676 23.6926 131.348 23.974 129.887 23.974V24.474C131.414 24.474 132.815 24.1794 134.089 23.5866L133.878 23.1334ZM129.887 23.974C128.131 23.974 126.572 23.6084 125.204 22.8831L124.97 23.3249C126.418 24.0929 128.06 24.474 129.887 24.474V23.974ZM125.206 22.8839C123.861 22.1598 122.807 21.1268 122.041 19.7803L121.606 20.0277C122.418 21.4546 123.54 22.5549 124.969 23.3241L125.206 22.8839ZM122.043 19.7843C121.298 18.4188 120.921 16.8187 120.921 14.976H120.421C120.421 16.888 120.813 18.5732 121.604 20.0237L122.043 19.7843ZM120.921 14.976C120.921 13.1332 121.298 11.5444 122.042 10.2011L121.605 9.95887C120.813 11.3889 120.421 13.0641 120.421 14.976H120.921ZM122.041 10.2023C122.808 8.83457 123.862 7.79169 125.206 7.06812L124.969 6.62788C123.539 7.39764 122.417 8.50942 121.605 9.95775L122.041 10.2023ZM125.204 7.06887C126.572 6.3436 128.131 5.978 129.887 5.978V5.478C128.06 5.478 126.418 5.85906 124.97 6.62713L125.204 7.06887ZM129.887 5.978C131.644 5.978 133.191 6.34363 134.537 7.06812L134.774 6.62788C133.346 5.85904 131.715 5.478 129.887 5.478V5.978ZM134.541 7.07024C135.906 7.77344 136.958 8.78436 137.701 10.1066L138.137 9.86143C137.345 8.45298 136.221 7.37322 134.77 6.62576L134.541 7.07024ZM137.703 10.1091C138.467 11.4302 138.853 12.9961 138.853 14.816H139.353C139.353 12.9239 138.951 11.2685 138.136 9.85887L137.703 10.1091ZM132.153 13.12C132.153 12.465 131.94 11.9355 131.481 11.5787L131.174 11.9733C131.483 12.2138 131.653 12.5803 131.653 13.12H132.153ZM131.487 11.5839C131.052 11.2209 130.512 11.046 129.887 11.046V11.546C130.414 11.546 130.835 11.6911 131.167 11.9681L131.487 11.5839ZM129.887 11.046C129.218 11.046 128.657 11.2079 128.232 11.5593C127.806 11.9111 127.547 12.4277 127.433 13.0768L127.925 13.1632C128.025 12.5963 128.24 12.2009 128.55 11.9447C128.861 11.6881 129.297 11.546 129.887 11.546V11.046ZM127.679 13.37H131.903V12.87H127.679V13.37ZM168.742 5.952L168.985 6.00979L169.058 5.702H168.742V5.952ZM164.454 24V24.25H164.652L164.697 24.0578L164.454 24ZM156.454 24L156.21 24.0523L156.252 24.25H156.454V24ZM154.278 13.824L154.522 13.7717L154.034 13.7688L154.278 13.824ZM151.974 24V24.25H152.174L152.218 24.0552L151.974 24ZM143.974 24L143.731 24.0574L143.776 24.25H143.974V24ZM139.718 5.952V5.702H139.402L139.475 6.00938L139.718 5.952ZM146.758 5.952L147.006 5.91806L146.976 5.702H146.758V5.952ZM148.262 16.928L148.014 16.9619L148.507 16.98L148.262 16.928ZM150.598 5.952V5.702H150.396L150.353 5.89996L150.598 5.952ZM158.182 5.952L158.426 5.89784L158.383 5.702H158.182V5.952ZM160.646 17.056L160.402 17.1102L160.894 17.0903L160.646 17.056ZM162.182 5.952V5.702H161.964L161.934 5.91774L162.182 5.952ZM168.499 5.89421L164.211 23.9422L164.697 24.0578L168.985 6.00979L168.499 5.89421ZM164.454 23.75H156.454V24.25H164.454V23.75ZM156.698 23.9477L154.522 13.7717L154.034 13.8763L156.21 24.0523L156.698 23.9477ZM154.034 13.7688L151.73 23.9448L152.218 24.0552L154.522 13.8792L154.034 13.7688ZM151.974 23.75H143.974V24.25H151.974V23.75ZM144.217 23.9426L139.961 5.89462L139.475 6.00938L143.731 24.0574L144.217 23.9426ZM139.718 6.202H146.758V5.702H139.718V6.202ZM146.51 5.98594L148.014 16.9619L148.51 16.8941L147.006 5.91806L146.51 5.98594ZM148.507 16.98L150.843 6.00404L150.353 5.89996L148.017 16.876L148.507 16.98ZM150.598 6.202H158.182V5.702H150.598V6.202ZM157.938 6.00616L160.402 17.1102L160.89 17.0018L158.426 5.89784L157.938 6.00616ZM160.894 17.0903L162.43 5.98626L161.934 5.91774L160.398 17.0217L160.894 17.0903ZM162.182 6.202H168.742V5.702H162.182V6.202ZM173.744 23.392L173.646 23.622L173.648 23.6225L173.744 23.392ZM169.328 17.76V17.51H169.056L169.079 17.7815L169.328 17.76ZM176.144 17.76L176.391 17.7205L176.357 17.51H176.144V17.76ZM176.816 18.944L176.672 19.1483L176.678 19.152L176.816 18.944ZM179.12 19.104L179.264 19.3088L179.27 19.3042L179.276 19.2992L179.12 19.104ZM176.496 17.056L176.545 16.8109L176.545 16.8107L176.496 17.056ZM173.264 16.224L173.18 16.4593L173.182 16.46L173.264 16.224ZM171.056 14.688L170.866 14.8503L170.869 14.8534L171.056 14.688ZM170.992 8.672L170.783 8.53558L170.782 8.53681L170.992 8.672ZM173.616 6.528L173.718 6.75648L173.721 6.75487L173.616 6.528ZM183.504 7.52L183.34 7.70815L183.341 7.7094L183.504 7.52ZM186 12.192V12.442H186.289L186.248 12.1563L186 12.192ZM179.696 12.192L179.452 12.2451L179.495 12.442H179.696V12.192ZM179.024 11.072L178.866 11.2662L178.874 11.272L179.024 11.072ZM176.816 10.88L176.955 11.088L176.963 11.0829L176.97 11.0773L176.816 10.88ZM177.2 12.32L177.102 12.55L177.111 12.5536L177.2 12.32ZM179.344 12.864L179.393 12.6187L179.392 12.6187L179.344 12.864ZM182.64 13.728L182.556 13.9634L182.556 13.9634L182.64 13.728ZM184.976 15.392L184.785 15.5526L184.787 15.5551L184.976 15.392ZM185.04 21.472L185.243 21.6187L185.243 21.6187L185.04 21.472ZM182.352 23.488L182.256 23.2574L182.254 23.258L182.352 23.488ZM178.288 23.974C176.609 23.974 175.128 23.7011 173.841 23.1615L173.648 23.6225C175.006 24.1922 176.555 24.474 178.288 24.474V23.974ZM173.842 23.162C172.574 22.6216 171.576 21.8777 170.837 20.9339L170.443 21.2421C171.241 22.2609 172.311 23.053 173.646 23.622L173.842 23.162ZM170.837 20.9339C170.099 19.9907 169.68 18.9274 169.577 17.7385L169.079 17.7815C169.19 19.0673 169.646 20.2227 170.443 21.2421L170.837 20.9339ZM169.328 18.01H176.144V17.51H169.328V18.01ZM175.897 17.7995C175.991 18.3839 176.243 18.8452 176.672 19.1482L176.96 18.7398C176.664 18.5308 176.468 18.2027 176.391 17.7205L175.897 17.7995ZM176.678 19.152C177.112 19.4415 177.643 19.578 178.256 19.578V19.078C177.717 19.078 177.289 18.9585 176.955 18.736L176.678 19.152ZM178.256 19.578C178.651 19.578 178.995 19.4971 179.264 19.3088L178.977 18.8992C178.819 19.0096 178.587 19.078 178.256 19.078V19.578ZM179.276 19.2992C179.538 19.0898 179.69 18.8196 179.69 18.496H179.19C179.19 18.6418 179.129 18.7768 178.964 18.9088L179.276 19.2992ZM179.69 18.496C179.69 18.2443 179.62 18.0153 179.47 17.8225C179.322 17.6327 179.111 17.495 178.857 17.3984L178.679 17.8656C178.874 17.9397 178.999 18.0313 179.075 18.1295C179.149 18.2247 179.19 18.3424 179.19 18.496H179.69ZM178.857 17.3984C178.388 17.2197 177.613 17.0244 176.545 16.8109L176.447 17.3011C177.513 17.5143 178.252 17.703 178.679 17.8656L178.857 17.3984ZM176.545 16.8107C175.25 16.556 174.185 16.2814 173.347 15.988L173.182 16.46C174.05 16.7639 175.14 17.044 176.448 17.3013L176.545 16.8107ZM173.349 15.9887C172.56 15.7056 171.859 15.2194 171.244 14.5226L170.869 14.8534C171.534 15.6073 172.304 16.1451 173.18 16.4593L173.349 15.9887ZM171.246 14.5258C170.678 13.8592 170.378 12.921 170.378 11.68H169.878C169.878 12.9989 170.197 14.0662 170.866 14.8502L171.246 14.5258ZM170.378 11.68C170.378 10.6165 170.654 9.66114 171.203 8.80719L170.782 8.53681C170.179 9.47486 169.878 10.5248 169.878 11.68H170.378ZM171.202 8.80842C171.769 7.9374 172.603 7.25189 173.718 6.75645L173.515 6.29955C172.325 6.82811 171.41 7.57193 170.783 8.53558L171.202 8.80842ZM173.721 6.75487C174.832 6.24056 176.192 5.978 177.808 5.978V5.478C176.14 5.478 174.704 5.74877 173.511 6.30113L173.721 6.75487ZM177.808 5.978C180.201 5.978 182.033 6.56522 183.34 7.70814L183.669 7.33185C182.244 6.08544 180.28 5.478 177.808 5.478V5.978ZM183.341 7.7094C184.679 8.8622 185.484 10.3636 185.753 12.2277L186.248 12.1563C185.962 10.1804 185.103 8.56713 183.667 7.3306L183.341 7.7094ZM186 11.942H179.696V12.442H186V11.942ZM179.941 12.1389C179.823 11.6005 179.572 11.1702 179.174 10.872L178.874 11.272C179.159 11.4858 179.356 11.8022 179.452 12.2451L179.941 12.1389ZM179.182 10.878C178.784 10.5545 178.264 10.406 177.648 10.406V10.906C178.185 10.906 178.582 11.0348 178.867 11.266L179.182 10.878ZM177.648 10.406C177.256 10.406 176.916 10.486 176.663 10.6827L176.97 11.0773C177.101 10.9753 177.315 10.906 177.648 10.906V10.406ZM176.678 10.672C176.401 10.8562 176.278 11.1465 176.278 11.488H176.778C176.778 11.2749 176.847 11.1598 176.955 11.088L176.678 10.672ZM176.278 11.488C176.278 11.7254 176.353 11.9411 176.502 12.1251C176.647 12.3049 176.853 12.4433 177.102 12.5498L177.299 12.0902C177.099 12.0047 176.969 11.9084 176.891 11.8109C176.815 11.7176 176.778 11.6132 176.778 11.488H176.278ZM177.111 12.5536C177.58 12.7323 178.313 12.9169 179.296 13.1093L179.392 12.6187C178.413 12.4271 177.716 12.249 177.289 12.0864L177.111 12.5536ZM179.296 13.1093C180.59 13.3638 181.675 13.6489 182.556 13.9634L182.724 13.4926C181.813 13.1671 180.702 12.8762 179.393 12.6187L179.296 13.1093ZM182.556 13.9634C183.407 14.2673 184.149 14.7944 184.785 15.5526L185.168 15.2314C184.48 14.4109 183.666 13.8287 182.724 13.4926L182.556 13.9634ZM184.787 15.5551C185.397 16.2641 185.718 17.2656 185.718 18.592H186.218C186.218 17.1877 185.878 16.0559 185.166 15.2289L184.787 15.5551ZM185.718 18.592C185.718 19.6066 185.425 20.5151 184.838 21.3253L185.243 21.6187C185.893 20.7222 186.218 19.7107 186.218 18.592H185.718ZM184.838 21.3253C184.251 22.1344 183.396 22.7807 182.256 23.2574L182.449 23.7186C183.656 23.2139 184.592 22.5163 185.243 21.6187L184.838 21.3253ZM182.254 23.258C181.14 23.7327 179.82 23.974 178.288 23.974V24.474C179.871 24.474 181.261 24.2247 182.45 23.718L182.254 23.258Z" fill="black" fill-opacity="0.4"/>
</g>
<defs>
<filter id="filter0_b_104_62" x="-4.40002" y="-4.67969" width="195.4" height="42.3193" filterUnits="userSpaceOnUse" color-interpolation-filters="sRGB">
<feFlood flood-opacity="0" result="BackgroundImageFix"/>
<feGaussianBlur in="BackgroundImage" stdDeviation="2.5"/>
<feComposite in2="SourceAlpha" operator="in" result="effect1_backgroundBlur_104_62"/>
<feBlend mode="normal" in="SourceGraphic" in2="effect1_backgroundBlur_104_62" result="shape"/>
</filter>
</defs>
</svg>
