<svg width="279" height="49" viewBox="0 0 279 49" fill="none" xmlns="http://www.w3.org/2000/svg">
<g filter="url(#filter0_b_51_105)">
<path d="M24.4 2.016V10.464H11.056V15.168H20.656V23.184H11.056V36H0.4V2.016H24.4ZM26.5694 22.464C26.5694 19.616 27.0494 17.152 28.0094 15.072C29.0014 12.96 30.3454 11.36 32.0414 10.272C33.7374 9.152 35.6414 8.592 37.7534 8.592C39.5134 8.592 41.0334 8.96 42.3134 9.696C43.5934 10.4 44.5694 11.376 45.2414 12.624V8.928H55.8494V36H45.2414V32.304C44.5694 33.552 43.5934 34.544 42.3134 35.28C41.0334 35.984 39.5134 36.336 37.7534 36.336C35.6414 36.336 33.7374 35.792 32.0414 34.704C30.3454 33.584 29.0014 31.984 28.0094 29.904C27.0494 27.792 26.5694 25.312 26.5694 22.464ZM45.2414 22.464C45.2414 21.024 44.8734 19.904 44.1374 19.104C43.4014 18.304 42.4574 17.904 41.3054 17.904C40.1534 17.904 39.2094 18.304 38.4734 19.104C37.7374 19.904 37.3694 21.024 37.3694 22.464C37.3694 23.904 37.7374 25.024 38.4734 25.824C39.2094 26.624 40.1534 27.024 41.3054 27.024C42.4574 27.024 43.4014 26.624 44.1374 25.824C44.8734 25.024 45.2414 23.904 45.2414 22.464ZM71.2904 0.48V36H60.6344V0.48H71.2904ZM88.1511 36.336C85.5911 36.336 83.3191 35.92 81.3351 35.088C79.3831 34.256 77.8311 33.104 76.6791 31.632C75.5271 30.16 74.8711 28.496 74.7111 26.64H84.9351C85.0631 27.44 85.3991 28.032 85.9431 28.416C86.5191 28.8 87.2391 28.992 88.1031 28.992C88.6471 28.992 89.0791 28.88 89.3991 28.656C89.7191 28.4 89.8791 28.096 89.8791 27.744C89.8791 27.136 89.5431 26.704 88.8711 26.448C88.1991 26.192 87.0631 25.904 85.4631 25.584C83.5111 25.2 81.8951 24.784 80.6151 24.336C79.3671 23.888 78.2631 23.12 77.3031 22.032C76.3751 20.944 75.9111 19.44 75.9111 17.52C75.9111 15.856 76.3431 14.352 77.2071 13.008C78.1031 11.632 79.4151 10.56 81.1431 9.792C82.8711 8.992 84.9671 8.592 87.4311 8.592C91.0791 8.592 93.9271 9.488 95.9751 11.28C98.0551 13.072 99.3031 15.408 99.7191 18.288H90.2631C90.1031 17.552 89.7671 16.992 89.2551 16.608C88.7431 16.192 88.0551 15.984 87.1911 15.984C86.6471 15.984 86.2311 16.096 85.9431 16.32C85.6551 16.512 85.5111 16.816 85.5111 17.232C85.5111 17.776 85.8471 18.192 86.5191 18.48C87.1911 18.736 88.2631 19.008 89.7351 19.296C91.6871 19.68 93.3351 20.112 94.6791 20.592C96.0231 21.072 97.1911 21.904 98.1831 23.088C99.1751 24.24 99.6711 25.84 99.6711 27.888C99.6711 29.488 99.2071 30.928 98.2791 32.208C97.3511 33.488 96.0071 34.496 94.2471 35.232C92.5191 35.968 90.4871 36.336 88.1511 36.336ZM134.476 8.928L117.148 48.96H105.484L112.3 34.656L101.02 8.928H112.876L117.964 22.656L122.716 8.928H134.476Z" fill="#FF304F"/>
<path d="M177.133 36H166.477L155.197 18.912V36H144.541V2.016H155.197L166.477 19.392V2.016H177.133V36ZM208.155 22.224C208.155 22.96 208.107 23.664 208.011 24.336H190.875C191.035 26.672 192.011 27.84 193.803 27.84C194.955 27.84 195.787 27.312 196.299 26.256H207.579C207.195 28.176 206.379 29.904 205.131 31.44C203.915 32.944 202.363 34.144 200.475 35.04C198.619 35.904 196.571 36.336 194.331 36.336C191.643 36.336 189.243 35.776 187.131 34.656C185.051 33.536 183.419 31.936 182.235 29.856C181.083 27.744 180.507 25.28 180.507 22.464C180.507 19.648 181.083 17.2 182.235 15.12C183.419 13.008 185.051 11.392 187.131 10.272C189.243 9.152 191.643 8.592 194.331 8.592C197.019 8.592 199.403 9.152 201.483 10.272C203.595 11.36 205.227 12.928 206.379 14.976C207.563 17.024 208.155 19.44 208.155 22.224ZM197.355 19.68C197.355 18.784 197.067 18.112 196.491 17.664C195.915 17.184 195.195 16.944 194.331 16.944C192.443 16.944 191.339 17.856 191.019 19.68H197.355ZM252.613 8.928L246.181 36H234.181L230.917 20.736L227.461 36H215.461L209.077 8.928H219.637L221.893 25.392L225.397 8.928H236.773L240.469 25.584L242.773 8.928H252.613ZM266.932 36.336C264.372 36.336 262.1 35.92 260.116 35.088C258.164 34.256 256.612 33.104 255.46 31.632C254.308 30.16 253.652 28.496 253.492 26.64H263.716C263.844 27.44 264.18 28.032 264.724 28.416C265.3 28.8 266.02 28.992 266.884 28.992C267.428 28.992 267.86 28.88 268.18 28.656C268.5 28.4 268.66 28.096 268.66 27.744C268.66 27.136 268.324 26.704 267.652 26.448C266.98 26.192 265.844 25.904 264.244 25.584C262.292 25.2 260.676 24.784 259.396 24.336C258.148 23.888 257.044 23.12 256.084 22.032C255.156 20.944 254.692 19.44 254.692 17.52C254.692 15.856 255.124 14.352 255.988 13.008C256.884 11.632 258.196 10.56 259.924 9.792C261.652 8.992 263.748 8.592 266.212 8.592C269.86 8.592 272.708 9.488 274.756 11.28C276.836 13.072 278.084 15.408 278.5 18.288H269.044C268.884 17.552 268.548 16.992 268.036 16.608C267.524 16.192 266.836 15.984 265.972 15.984C265.428 15.984 265.012 16.096 264.724 16.32C264.436 16.512 264.292 16.816 264.292 17.232C264.292 17.776 264.628 18.192 265.3 18.48C265.972 18.736 267.044 19.008 268.516 19.296C270.468 19.68 272.116 20.112 273.46 20.592C274.804 21.072 275.972 21.904 276.964 23.088C277.956 24.24 278.452 25.84 278.452 27.888C278.452 29.488 277.988 30.928 277.06 32.208C276.132 33.488 274.788 34.496 273.028 35.232C271.3 35.968 269.268 36.336 266.932 36.336Z" fill="#002651"/>
<path d="M24.4 2.016H24.65V1.766H24.4V2.016ZM24.4 10.464V10.714H24.65V10.464H24.4ZM11.056 10.464V10.214H10.806V10.464H11.056ZM11.056 15.168H10.806V15.418H11.056V15.168ZM20.656 15.168H20.906V14.918H20.656V15.168ZM20.656 23.184V23.434H20.906V23.184H20.656ZM11.056 23.184V22.934H10.806V23.184H11.056ZM11.056 36V36.25H11.306V36H11.056ZM0.4 36H0.15V36.25H0.4V36ZM0.4 2.016V1.766H0.15V2.016H0.4ZM24.15 2.016V10.464H24.65V2.016H24.15ZM24.4 10.214H11.056V10.714H24.4V10.214ZM10.806 10.464V15.168H11.306V10.464H10.806ZM11.056 15.418H20.656V14.918H11.056V15.418ZM20.406 15.168V23.184H20.906V15.168H20.406ZM20.656 22.934H11.056V23.434H20.656V22.934ZM10.806 23.184V36H11.306V23.184H10.806ZM11.056 35.75H0.4V36.25H11.056V35.75ZM0.65 36V2.016H0.15V36H0.65ZM0.4 2.266H24.4V1.766H0.4V2.266ZM28.0094 15.072L27.7831 14.9657L27.7824 14.9672L28.0094 15.072ZM32.0414 10.272L32.1764 10.4824L32.1791 10.4806L32.0414 10.272ZM42.3134 9.696L42.1887 9.91276L42.1929 9.91505L42.3134 9.696ZM45.2414 12.624L45.0213 12.7425L45.4914 12.624H45.2414ZM45.2414 8.928V8.678H44.9914V8.928H45.2414ZM55.8494 8.928H56.0994V8.678H55.8494V8.928ZM55.8494 36V36.25H56.0994V36H55.8494ZM45.2414 36H44.9914V36.25H45.2414V36ZM45.2414 32.304H45.4914L45.0213 32.1855L45.2414 32.304ZM42.3134 35.28L42.4339 35.4991L42.438 35.4967L42.3134 35.28ZM32.0414 34.704L31.9036 34.9126L31.9064 34.9144L32.0414 34.704ZM28.0094 29.904L27.7817 30.0075L27.7837 30.0116L28.0094 29.904ZM44.1374 19.104L44.3214 18.9347L44.3214 18.9347L44.1374 19.104ZM38.4734 19.104L38.2894 18.9347L38.2894 18.9347L38.4734 19.104ZM26.8194 22.464C26.8194 19.6436 27.2947 17.2169 28.2364 15.1768L27.7824 14.9672C26.804 17.0871 26.3194 19.5884 26.3194 22.464H26.8194ZM28.2357 15.1783C29.2109 13.102 30.5259 11.5412 32.1764 10.4824L31.9064 10.0616C30.1648 11.1788 28.7919 12.818 27.7831 14.9657L28.2357 15.1783ZM32.1791 10.4806C33.8326 9.3887 35.6883 8.842 37.7534 8.842V8.342C35.5944 8.342 33.6421 8.91529 31.9036 10.0634L32.1791 10.4806ZM37.7534 8.842C39.4781 8.842 40.9534 9.20237 42.1888 9.91272L42.438 9.47927C41.1134 8.71763 39.5487 8.342 37.7534 8.342V8.842ZM42.1929 9.91505C43.4321 10.5966 44.3728 11.5383 45.0213 12.7425L45.4615 12.5055C44.7659 11.2137 43.7547 10.2034 42.4339 9.47694L42.1929 9.91505ZM45.4914 12.624V8.928H44.9914V12.624H45.4914ZM45.2414 9.178H55.8494V8.678H45.2414V9.178ZM55.5994 8.928V36H56.0994V8.928H55.5994ZM55.8494 35.75H45.2414V36.25H55.8494V35.75ZM45.4914 36V32.304H44.9914V36H45.4914ZM45.0213 32.1855C44.3723 33.3907 43.4302 34.3495 42.1888 35.0633L42.438 35.4967C43.7566 34.7385 44.7665 33.7133 45.4615 32.4225L45.0213 32.1855ZM42.1929 35.0609C40.9567 35.7409 39.4798 36.086 37.7534 36.086V36.586C39.5469 36.586 41.1101 36.2271 42.4339 35.4991L42.1929 35.0609ZM37.7534 36.086C35.6868 36.086 33.8301 35.5545 32.1764 34.4936L31.9064 34.9144C33.6447 36.0295 35.5959 36.586 37.7534 36.586V36.086ZM32.1791 34.4954C30.5259 33.4037 29.2101 31.841 28.235 29.7964L27.7837 30.0116C28.7926 32.127 30.1648 33.7643 31.9036 34.9126L32.1791 34.4954ZM28.237 29.8005C27.2947 27.7276 26.8194 25.2842 26.8194 22.464H26.3194C26.3194 25.3398 26.8041 27.8564 27.7818 30.0075L28.237 29.8005ZM45.4914 22.464C45.4914 20.9821 45.1121 19.7942 44.3214 18.9347L43.9534 19.2733C44.6347 20.0138 44.9914 21.0659 44.9914 22.464H45.4914ZM44.3214 18.9347C43.5349 18.0799 42.5226 17.654 41.3054 17.654V18.154C42.3922 18.154 43.2678 18.5281 43.9534 19.2733L44.3214 18.9347ZM41.3054 17.654C40.0882 17.654 39.0758 18.0799 38.2894 18.9347L38.6574 19.2733C39.3429 18.5281 40.2186 18.154 41.3054 18.154V17.654ZM38.2894 18.9347C37.4987 19.7942 37.1194 20.9821 37.1194 22.464H37.6194C37.6194 21.0659 37.9761 20.0138 38.6574 19.2733L38.2894 18.9347ZM37.1194 22.464C37.1194 23.9459 37.4987 25.1338 38.2894 25.9933L38.6574 25.6547C37.9761 24.9142 37.6194 23.8621 37.6194 22.464H37.1194ZM38.2894 25.9933C39.0758 26.8481 40.0882 27.274 41.3054 27.274V26.774C40.2186 26.774 39.3429 26.3999 38.6574 25.6547L38.2894 25.9933ZM41.3054 27.274C42.5226 27.274 43.5349 26.8481 44.3214 25.9933L43.9534 25.6547C43.2678 26.3999 42.3922 26.774 41.3054 26.774V27.274ZM44.3214 25.9933C45.1121 25.1338 45.4914 23.9459 45.4914 22.464H44.9914C44.9914 23.8621 44.6347 24.9142 43.9534 25.6547L44.3214 25.9933ZM71.2904 0.48H71.5404V0.23H71.2904V0.48ZM71.2904 36V36.25H71.5404V36H71.2904ZM60.6344 36H60.3844V36.25H60.6344V36ZM60.6344 0.48V0.23H60.3844V0.48H60.6344ZM71.0404 0.48V36H71.5404V0.48H71.0404ZM71.2904 35.75H60.6344V36.25H71.2904V35.75ZM60.8844 36V0.48H60.3844V36H60.8844ZM60.6344 0.73H71.2904V0.23H60.6344V0.73ZM81.3351 35.088L81.2371 35.318L81.2384 35.3185L81.3351 35.088ZM74.7111 26.64V26.39H74.4386L74.462 26.6615L74.7111 26.64ZM84.9351 26.64L85.182 26.6005L85.1483 26.39H84.9351V26.64ZM85.9431 28.416L85.7989 28.6203L85.8045 28.624L85.9431 28.416ZM89.3991 28.656L89.5425 28.8608L89.549 28.8562L89.5553 28.8512L89.3991 28.656ZM85.4631 25.584L85.5122 25.3389L85.5114 25.3387L85.4631 25.584ZM80.6151 24.336L80.5307 24.5713L80.5325 24.572L80.6151 24.336ZM77.3031 22.032L77.1129 22.1943L77.1157 22.1974L77.3031 22.032ZM77.2071 13.008L76.9976 12.8716L76.9968 12.8728L77.2071 13.008ZM81.1431 9.792L81.2447 10.0205L81.2482 10.0189L81.1431 9.792ZM95.9751 11.28L95.8105 11.4681L95.8119 11.4694L95.9751 11.28ZM99.7191 18.288V18.538H100.008L99.9666 18.2523L99.7191 18.288ZM90.2631 18.288L90.0188 18.3411L90.0616 18.538H90.2631V18.288ZM89.2551 16.608L89.0974 16.8022L89.1051 16.808L89.2551 16.608ZM85.9431 16.32L86.0818 16.528L86.0894 16.5229L86.0966 16.5173L85.9431 16.32ZM86.5191 18.48L86.4206 18.71L86.4301 18.7136L86.5191 18.48ZM89.7351 19.296L89.7834 19.0507L89.7831 19.0507L89.7351 19.296ZM94.6791 20.592L94.595 20.8274L94.595 20.8274L94.6791 20.592ZM98.1831 23.088L97.9915 23.2486L97.9937 23.2511L98.1831 23.088ZM98.2791 32.208L98.4815 32.3547L98.4815 32.3547L98.2791 32.208ZM94.2471 35.232L94.1507 35.0014L94.1492 35.002L94.2471 35.232ZM88.1511 36.086C85.6181 36.086 83.38 35.6744 81.4318 34.8575L81.2384 35.3185C83.2583 36.1656 85.5641 36.586 88.1511 36.586V36.086ZM81.4332 34.858C79.5147 34.0403 77.9986 32.9124 76.876 31.4779L76.4822 31.7861C77.6636 33.2956 79.2516 34.4717 81.2371 35.318L81.4332 34.858ZM76.876 31.4779C75.7538 30.044 75.116 28.426 74.9602 26.6185L74.462 26.6615C74.6262 28.566 75.3005 30.276 76.4822 31.7861L76.876 31.4779ZM74.7111 26.89H84.9351V26.39H74.7111V26.89ZM84.6883 26.6795C84.8244 27.5306 85.1884 28.1892 85.799 28.6202L86.0873 28.2118C85.6099 27.8748 85.3018 27.3494 85.182 26.6005L84.6883 26.6795ZM85.8045 28.624C86.4307 29.0415 87.202 29.242 88.1031 29.242V28.742C87.2762 28.742 86.6076 28.5585 86.0818 28.208L85.8045 28.624ZM88.1031 29.242C88.6789 29.242 89.1669 29.1237 89.5425 28.8608L89.2558 28.4512C88.9914 28.6363 88.6154 28.742 88.1031 28.742V29.242ZM89.5553 28.8512C89.9237 28.5565 90.1291 28.1849 90.1291 27.744H89.6291C89.6291 28.0071 89.5146 28.2435 89.243 28.4608L89.5553 28.8512ZM90.1291 27.744C90.1291 27.3909 90.0304 27.0753 89.8245 26.8105C89.6208 26.5487 89.3258 26.3537 88.9601 26.2144L88.7821 26.6816C89.0885 26.7983 89.2974 26.9473 89.4298 27.1175C89.5599 27.2847 89.6291 27.4891 89.6291 27.744H90.1291ZM88.9601 26.2144C88.267 25.9503 87.1131 25.659 85.5122 25.3389L85.4141 25.8291C87.0132 26.149 88.1313 26.4337 88.7821 26.6816L88.9601 26.2144ZM85.5114 25.3387C83.5662 24.956 81.9626 24.5428 80.6977 24.1L80.5325 24.572C81.8276 25.0252 83.4561 25.444 85.4149 25.8293L85.5114 25.3387ZM80.6996 24.1007C79.4949 23.6683 78.4254 22.926 77.4906 21.8666L77.1157 22.1974C78.1009 23.314 79.2393 24.1077 80.5307 24.5713L80.6996 24.1007ZM77.4933 21.8698C76.6154 20.8405 76.1611 19.401 76.1611 17.52H75.6611C75.6611 19.4789 76.1348 21.0475 77.1129 22.1942L77.4933 21.8698ZM76.1611 17.52C76.1611 15.9018 76.5805 14.4451 77.4174 13.1432L76.9968 12.8728C76.1058 14.2589 75.6611 15.8102 75.6611 17.52H76.1611ZM77.4166 13.1444C78.2825 11.8147 79.5539 10.7719 81.2447 10.0205L81.0416 9.56355C79.2763 10.3481 77.9238 11.4493 76.9976 12.8716L77.4166 13.1444ZM81.2482 10.0189C82.9351 9.23789 84.9932 8.842 87.4311 8.842V8.342C84.9411 8.342 82.8072 8.74611 81.0381 9.56513L81.2482 10.0189ZM87.4311 8.842C91.0394 8.842 93.8216 9.72789 95.8105 11.4681L96.1398 11.0919C94.0326 9.24811 91.1188 8.342 87.4311 8.342V8.842ZM95.8119 11.4694C97.8434 13.2195 99.0638 15.4996 99.4717 18.3237L99.9666 18.2523C99.5425 15.3164 98.2669 12.9245 96.1383 11.0906L95.8119 11.4694ZM99.7191 18.038H90.2631V18.538H99.7191V18.038ZM90.5074 18.2349C90.337 17.4511 89.9734 16.8342 89.4051 16.408L89.1051 16.808C89.5608 17.1498 89.8692 17.6529 90.0188 18.3411L90.5074 18.2349ZM89.4128 16.414C88.844 15.9519 88.0946 15.734 87.1911 15.734V16.234C88.0157 16.234 88.6422 16.4321 89.0975 16.802L89.4128 16.414ZM87.1911 15.734C86.6177 15.734 86.1384 15.8514 85.7896 16.1227L86.0966 16.5173C86.3238 16.3406 86.6766 16.234 87.1911 16.234V15.734ZM85.8045 16.112C85.4322 16.3602 85.2611 16.7518 85.2611 17.232H85.7611C85.7611 16.8802 85.8781 16.6638 86.0818 16.528L85.8045 16.112ZM85.2611 17.232C85.2611 17.5601 85.364 17.8558 85.5686 18.1091C85.7699 18.3583 86.0603 18.5553 86.4206 18.7098L86.6176 18.2502C86.306 18.1167 86.0924 17.9617 85.9576 17.7949C85.8262 17.6322 85.7611 17.4479 85.7611 17.232H85.2611ZM86.4301 18.7136C87.1232 18.9776 88.2128 19.2529 89.6871 19.5413L89.7831 19.0507C88.3135 18.7631 87.2591 18.4944 86.6081 18.2464L86.4301 18.7136ZM89.6869 19.5413C91.6311 19.9238 93.2663 20.3529 94.595 20.8274L94.7632 20.3566C93.404 19.8711 91.7432 19.4362 89.7834 19.0507L89.6869 19.5413ZM94.595 20.8274C95.8937 21.2913 97.0256 22.0957 97.9915 23.2486L98.3748 22.9274C97.3566 21.7123 96.1525 20.8527 94.7632 20.3566L94.595 20.8274ZM97.9937 23.2511C98.9348 24.3441 99.4211 25.8789 99.4211 27.888H99.9211C99.9211 25.8011 99.4154 24.1359 98.3726 22.9249L97.9937 23.2511ZM99.4211 27.888C99.4211 29.436 98.9734 30.8245 98.0767 32.0613L98.4815 32.3547C99.4409 31.0315 99.9211 29.54 99.9211 27.888H99.4211ZM98.0767 32.0613C97.1808 33.2971 95.8771 34.2794 94.1507 35.0014L94.3436 35.4626C96.1371 34.7126 97.5215 33.6789 98.4815 32.3547L98.0767 32.0613ZM94.1492 35.002C92.4587 35.722 90.4614 36.086 88.1511 36.086V36.586C90.5128 36.586 92.5796 36.214 94.3451 35.462L94.1492 35.002ZM134.476 8.928L134.705 9.02731L134.857 8.678H134.476V8.928ZM117.148 48.96V49.21H117.312L117.377 49.0593L117.148 48.96ZM105.484 48.96L105.258 48.8525L105.088 49.21H105.484V48.96ZM112.3 34.656L112.526 34.7635L112.575 34.6603L112.529 34.5556L112.3 34.656ZM101.02 8.928V8.678H100.637L100.791 9.02838L101.02 8.928ZM112.876 8.928L113.11 8.84112L113.05 8.678H112.876V8.928ZM117.964 22.656L117.73 22.7429L117.972 23.397L118.2 22.7378L117.964 22.656ZM122.716 8.928V8.678H122.538L122.48 8.84622L122.716 8.928ZM134.247 8.82869L116.919 48.8607L117.377 49.0593L134.705 9.02731L134.247 8.82869ZM117.148 48.71H105.484V49.21H117.148V48.71ZM105.71 49.0675L112.526 34.7635L112.074 34.5485L105.258 48.8525L105.71 49.0675ZM112.529 34.5556L101.249 8.82762L100.791 9.02838L112.071 34.7564L112.529 34.5556ZM101.02 9.178H112.876V8.678H101.02V9.178ZM112.642 9.01488L117.73 22.7429L118.198 22.5691L113.11 8.84112L112.642 9.01488ZM118.2 22.7378L122.952 9.00978L122.48 8.84622L117.728 22.5742L118.2 22.7378ZM122.716 9.178H134.476V8.678H122.716V9.178ZM177.133 36V36.25H177.383V36H177.133ZM166.477 36L166.268 36.1377L166.342 36.25H166.477V36ZM155.197 18.912L155.405 18.7743L154.947 18.0795V18.912H155.197ZM155.197 36V36.25H155.447V36H155.197ZM144.541 36H144.291V36.25H144.541V36ZM144.541 2.016V1.766H144.291V2.016H144.541ZM155.197 2.016L155.406 1.87987L155.332 1.766H155.197V2.016ZM166.477 19.392L166.267 19.5281L166.727 20.2362V19.392H166.477ZM166.477 2.016V1.766H166.227V2.016H166.477ZM177.133 2.016H177.383V1.766H177.133V2.016ZM177.133 35.75H166.477V36.25H177.133V35.75ZM166.685 35.8623L155.405 18.7743L154.988 19.0497L166.268 36.1377L166.685 35.8623ZM154.947 18.912V36H155.447V18.912H154.947ZM155.197 35.75H144.541V36.25H155.197V35.75ZM144.791 36V2.016H144.291V36H144.791ZM144.541 2.266H155.197V1.766H144.541V2.266ZM154.987 2.15212L166.267 19.5281L166.686 19.2559L155.406 1.87987L154.987 2.15212ZM166.727 19.392V2.016H166.227V19.392H166.727ZM166.477 2.266H177.133V1.766H166.477V2.266ZM176.883 2.016V36H177.383V2.016H176.883ZM208.011 24.336V24.586H208.228L208.258 24.3714L208.011 24.336ZM190.875 24.336V24.086H190.607L190.625 24.3531L190.875 24.336ZM196.299 26.256V26.006H196.142L196.074 26.1469L196.299 26.256ZM207.579 26.256L207.824 26.305L207.884 26.006H207.579V26.256ZM205.131 31.44L204.937 31.2824L204.936 31.2828L205.131 31.44ZM200.475 35.04L200.58 35.2667L200.582 35.2659L200.475 35.04ZM187.131 34.656L187.012 34.8761L187.014 34.8769L187.131 34.656ZM182.235 29.856L182.015 29.9757L182.018 29.9797L182.235 29.856ZM182.235 15.12L182.017 14.9977L182.016 14.9989L182.235 15.12ZM187.131 10.272L187.014 10.0511L187.012 10.0519L187.131 10.272ZM201.483 10.272L201.364 10.4922L201.368 10.4942L201.483 10.272ZM206.379 14.976L206.161 15.0986L206.162 15.1011L206.379 14.976ZM197.355 19.68V19.93H197.605V19.68H197.355ZM196.491 17.664L196.331 17.8562L196.337 17.8613L196.491 17.664ZM191.019 19.68L190.773 19.6368L190.721 19.93H191.019V19.68ZM207.905 22.224C207.905 22.9491 207.858 23.6413 207.763 24.3006L208.258 24.3714C208.356 23.6867 208.405 22.9709 208.405 22.224H207.905ZM208.011 24.086H190.875V24.586H208.011V24.086ZM190.625 24.3531C190.707 25.5471 190.999 26.4833 191.535 27.1243C192.079 27.7755 192.847 28.09 193.803 28.09V27.59C192.966 27.59 192.351 27.3205 191.919 26.8037C191.478 26.2767 191.203 25.4609 191.124 24.3189L190.625 24.3531ZM193.803 28.09C194.418 28.09 194.962 27.9485 195.425 27.6551C195.887 27.3618 196.251 26.9268 196.524 26.3651L196.074 26.1469C195.834 26.6412 195.527 26.9982 195.157 27.2329C194.787 27.4675 194.34 27.59 193.803 27.59V28.09ZM196.299 26.506H207.579V26.006H196.299V26.506ZM207.334 26.207C206.958 28.0867 206.16 29.7775 204.937 31.2824L205.325 31.5976C206.598 30.0305 207.432 28.2653 207.824 26.305L207.334 26.207ZM204.936 31.2828C203.746 32.7554 202.225 33.9329 200.368 34.8141L200.582 35.2659C202.501 34.3551 204.084 33.1326 205.325 31.5972L204.936 31.2828ZM200.369 34.8134C198.549 35.6606 196.538 36.086 194.331 36.086V36.586C196.604 36.586 198.688 36.1474 200.58 35.2666L200.369 34.8134ZM194.331 36.086C191.679 36.086 189.32 35.5337 187.248 34.4351L187.014 34.8769C189.166 36.0183 191.607 36.586 194.331 36.586V36.086ZM187.249 34.4359C185.211 33.3384 183.613 31.7721 182.452 29.7323L182.018 29.9797C183.224 32.0999 184.89 33.7336 187.012 34.8761L187.249 34.4359ZM182.454 29.7363C181.326 27.6668 180.757 25.2453 180.757 22.464H180.257C180.257 25.3147 180.84 27.8212 182.015 29.9757L182.454 29.7363ZM180.757 22.464C180.757 19.6826 181.326 17.2778 182.454 15.2411L182.016 14.9989C180.84 17.1222 180.257 19.6134 180.257 22.464H180.757ZM182.453 15.2422C183.614 13.1706 185.212 11.589 187.249 10.4921L187.012 10.0519C184.889 11.195 183.223 12.8454 182.017 14.9977L182.453 15.2422ZM187.248 10.4929C189.32 9.39427 191.679 8.842 194.331 8.842V8.342C191.607 8.342 189.166 8.90973 187.014 10.0511L187.248 10.4929ZM194.331 8.842C196.983 8.842 199.326 9.39429 201.364 10.4921L201.601 10.0519C199.48 8.9097 197.054 8.342 194.331 8.342V8.842ZM201.368 10.4942C203.437 11.5601 205.033 13.0937 206.161 15.0986L206.597 14.8534C205.421 12.7623 203.752 11.1599 201.597 10.0498L201.368 10.4942ZM206.162 15.1011C207.321 17.1048 207.905 19.4761 207.905 22.224H208.405C208.405 19.4039 207.805 16.9432 206.595 14.8509L206.162 15.1011ZM197.605 19.68C197.605 18.7263 197.295 17.9728 196.644 17.4667L196.337 17.8613C196.839 18.2512 197.105 18.8417 197.105 19.68H197.605ZM196.651 17.4719C196.023 16.9489 195.244 16.694 194.331 16.694V17.194C195.146 17.194 195.806 17.4191 196.331 17.8561L196.651 17.4719ZM194.331 16.694C193.347 16.694 192.537 16.9319 191.928 17.4353C191.318 17.9391 190.94 18.6837 190.773 19.6368L191.265 19.7232C191.418 18.8523 191.752 18.2289 192.246 17.8207C192.741 17.4121 193.426 17.194 194.331 17.194V16.694ZM191.019 19.93H197.355V19.43H191.019V19.93ZM252.613 8.928L252.856 8.98579L252.929 8.678H252.613V8.928ZM246.181 36V36.25H246.379L246.424 36.0578L246.181 36ZM234.181 36L233.937 36.0523L233.979 36.25H234.181V36ZM230.917 20.736L231.161 20.6837L230.673 20.6808L230.917 20.736ZM227.461 36V36.25H227.661L227.705 36.0552L227.461 36ZM215.461 36L215.218 36.0574L215.263 36.25H215.461V36ZM209.077 8.928V8.678H208.761L208.834 8.98538L209.077 8.928ZM219.637 8.928L219.885 8.89406L219.855 8.678H219.637V8.928ZM221.893 25.392L221.645 25.4259L222.138 25.444L221.893 25.392ZM225.397 8.928V8.678H225.195L225.152 8.87596L225.397 8.928ZM236.773 8.928L237.017 8.87384L236.974 8.678H236.773V8.928ZM240.469 25.584L240.225 25.6382L240.717 25.6183L240.469 25.584ZM242.773 8.928V8.678H242.555L242.525 8.89374L242.773 8.928ZM252.37 8.87021L245.938 35.9422L246.424 36.0578L252.856 8.98579L252.37 8.87021ZM246.181 35.75H234.181V36.25H246.181V35.75ZM234.425 35.9477L231.161 20.6837L230.673 20.7883L233.937 36.0523L234.425 35.9477ZM230.673 20.6808L227.217 35.9448L227.705 36.0552L231.161 20.7912L230.673 20.6808ZM227.461 35.75H215.461V36.25H227.461V35.75ZM215.704 35.9426L209.32 8.87062L208.834 8.98538L215.218 36.0574L215.704 35.9426ZM209.077 9.178H219.637V8.678H209.077V9.178ZM219.389 8.96194L221.645 25.4259L222.141 25.3581L219.885 8.89406L219.389 8.96194ZM222.138 25.444L225.642 8.98004L225.152 8.87596L221.648 25.34L222.138 25.444ZM225.397 9.178H236.773V8.678H225.397V9.178ZM236.529 8.98216L240.225 25.6382L240.713 25.5298L237.017 8.87384L236.529 8.98216ZM240.717 25.6183L243.021 8.96226L242.525 8.89374L240.221 25.5497L240.717 25.6183ZM242.773 9.178H252.613V8.678H242.773V9.178ZM260.116 35.088L260.018 35.318L260.02 35.3185L260.116 35.088ZM253.492 26.64V26.39H253.22L253.243 26.6615L253.492 26.64ZM263.716 26.64L263.963 26.6005L263.93 26.39H263.716V26.64ZM264.724 28.416L264.58 28.6203L264.586 28.624L264.724 28.416ZM268.18 28.656L268.324 28.8608L268.33 28.8562L268.337 28.8512L268.18 28.656ZM264.244 25.584L264.293 25.3389L264.293 25.3387L264.244 25.584ZM259.396 24.336L259.312 24.5713L259.314 24.572L259.396 24.336ZM256.084 22.032L255.894 22.1943L255.897 22.1974L256.084 22.032ZM255.988 13.008L255.779 12.8716L255.778 12.8728L255.988 13.008ZM259.924 9.792L260.026 10.0205L260.029 10.0189L259.924 9.792ZM274.756 11.28L274.592 11.4681L274.593 11.4694L274.756 11.28ZM278.5 18.288V18.538H278.789L278.748 18.2523L278.5 18.288ZM269.044 18.288L268.8 18.3411L268.843 18.538H269.044V18.288ZM268.036 16.608L267.879 16.8022L267.886 16.808L268.036 16.608ZM264.724 16.32L264.863 16.528L264.871 16.5229L264.878 16.5173L264.724 16.32ZM265.3 18.48L265.202 18.71L265.211 18.7136L265.3 18.48ZM268.516 19.296L268.565 19.0507L268.564 19.0507L268.516 19.296ZM273.46 20.592L273.376 20.8274L273.376 20.8274L273.46 20.592ZM276.964 23.088L276.773 23.2486L276.775 23.2511L276.964 23.088ZM277.06 32.208L277.263 32.3547L277.263 32.3547L277.06 32.208ZM273.028 35.232L272.932 35.0014L272.93 35.002L273.028 35.232ZM266.932 36.086C264.399 36.086 262.161 35.6744 260.213 34.8575L260.02 35.3185C262.04 36.1656 264.345 36.586 266.932 36.586V36.086ZM260.214 34.858C258.296 34.0403 256.78 32.9124 255.657 31.4779L255.263 31.7861C256.445 33.2956 258.033 34.4717 260.018 35.318L260.214 34.858ZM255.657 31.4779C254.535 30.044 253.897 28.426 253.741 26.6185L253.243 26.6615C253.407 28.566 254.082 30.276 255.263 31.7861L255.657 31.4779ZM253.492 26.89H263.716V26.39H253.492V26.89ZM263.47 26.6795C263.606 27.5306 263.97 28.1892 264.58 28.6202L264.869 28.2118C264.391 27.8748 264.083 27.3494 263.963 26.6005L263.47 26.6795ZM264.586 28.624C265.212 29.0415 265.983 29.242 266.884 29.242V28.742C266.057 28.742 265.389 28.5585 264.863 28.208L264.586 28.624ZM266.884 29.242C267.46 29.242 267.948 29.1237 268.324 28.8608L268.037 28.4512C267.773 28.6363 267.397 28.742 266.884 28.742V29.242ZM268.337 28.8512C268.705 28.5565 268.91 28.1849 268.91 27.744H268.41C268.41 28.0071 268.296 28.2435 268.024 28.4608L268.337 28.8512ZM268.91 27.744C268.91 27.3909 268.812 27.0753 268.606 26.8105C268.402 26.5487 268.107 26.3537 267.741 26.2144L267.563 26.6816C267.87 26.7983 268.079 26.9473 268.211 27.1175C268.341 27.2847 268.41 27.4891 268.41 27.744H268.91ZM267.741 26.2144C267.048 25.9503 265.894 25.659 264.293 25.3389L264.195 25.8291C265.794 26.149 266.913 26.4337 267.563 26.6816L267.741 26.2144ZM264.293 25.3387C262.347 24.956 260.744 24.5428 259.479 24.1L259.314 24.572C260.609 25.0252 262.237 25.444 264.196 25.8293L264.293 25.3387ZM259.481 24.1007C258.276 23.6683 257.207 22.926 256.272 21.8666L255.897 22.1974C256.882 23.314 258.021 24.1077 259.312 24.5713L259.481 24.1007ZM256.275 21.8698C255.397 20.8405 254.942 19.401 254.942 17.52H254.442C254.442 19.4789 254.916 21.0475 255.894 22.1942L256.275 21.8698ZM254.942 17.52C254.942 15.9018 255.362 14.4451 256.199 13.1432L255.778 12.8728C254.887 14.2589 254.442 15.8102 254.442 17.52H254.942ZM256.198 13.1444C257.064 11.8147 258.335 10.7719 260.026 10.0205L259.823 9.56355C258.058 10.3481 256.705 11.4493 255.779 12.8716L256.198 13.1444ZM260.029 10.0189C261.716 9.23789 263.774 8.842 266.212 8.842V8.342C263.722 8.342 261.588 8.74611 259.819 9.56513L260.029 10.0189ZM266.212 8.842C269.821 8.842 272.603 9.72789 274.592 11.4681L274.921 11.0919C272.814 9.24811 269.9 8.342 266.212 8.342V8.842ZM274.593 11.4694C276.625 13.2195 277.845 15.4996 278.253 18.3237L278.748 18.2523C278.324 15.3164 277.048 12.9245 274.92 11.0906L274.593 11.4694ZM278.5 18.038H269.044V18.538H278.5V18.038ZM269.289 18.2349C269.118 17.4511 268.755 16.8342 268.186 16.408L267.886 16.808C268.342 17.1498 268.65 17.6529 268.8 18.3411L269.289 18.2349ZM268.194 16.414C267.625 15.9519 266.876 15.734 265.972 15.734V16.234C266.797 16.234 267.423 16.4321 267.879 16.802L268.194 16.414ZM265.972 15.734C265.399 15.734 264.92 15.8514 264.571 16.1227L264.878 16.5173C265.105 16.3406 265.458 16.234 265.972 16.234V15.734ZM264.586 16.112C264.213 16.3602 264.042 16.7518 264.042 17.232H264.542C264.542 16.8802 264.659 16.6638 264.863 16.528L264.586 16.112ZM264.042 17.232C264.042 17.5601 264.145 17.8558 264.35 18.1091C264.551 18.3583 264.842 18.5553 265.202 18.7098L265.399 18.2502C265.087 18.1167 264.874 17.9617 264.739 17.7949C264.607 17.6322 264.542 17.4479 264.542 17.232H264.042ZM265.211 18.7136C265.904 18.9776 266.994 19.2529 268.468 19.5413L268.564 19.0507C267.095 18.7631 266.04 18.4944 265.389 18.2464L265.211 18.7136ZM268.468 19.5413C270.412 19.9238 272.048 20.3529 273.376 20.8274L273.544 20.3566C272.185 19.8711 270.524 19.4362 268.565 19.0507L268.468 19.5413ZM273.376 20.8274C274.675 21.2913 275.807 22.0957 276.773 23.2486L277.156 22.9274C276.138 21.7123 274.934 20.8527 273.544 20.3566L273.376 20.8274ZM276.775 23.2511C277.716 24.3441 278.202 25.8789 278.202 27.888H278.702C278.702 25.8011 278.197 24.1359 277.154 22.9249L276.775 23.2511ZM278.202 27.888C278.202 29.436 277.755 30.8245 276.858 32.0613L277.263 32.3547C278.222 31.0315 278.702 29.54 278.702 27.888H278.202ZM276.858 32.0613C275.962 33.2971 274.658 34.2794 272.932 35.0014L273.125 35.4626C274.918 34.7126 276.303 33.6789 277.263 32.3547L276.858 32.0613ZM272.93 35.002C271.24 35.722 269.243 36.086 266.932 36.086V36.586C269.294 36.586 271.361 36.214 273.126 35.462L272.93 35.002Z" fill="black" fill-opacity="0.4"/>
</g>
<defs>
<filter id="filter0_b_51_105" x="-4.59998" y="-4.51953" width="288.1" height="58.4795" filterUnits="userSpaceOnUse" color-interpolation-filters="sRGB">
<feFlood flood-opacity="0" result="BackgroundImageFix"/>
<feGaussianBlur in="BackgroundImage" stdDeviation="2.5"/>
<feComposite in2="SourceAlpha" operator="in" result="effect1_backgroundBlur_51_105"/>
<feBlend mode="normal" in="SourceGraphic" in2="effect1_backgroundBlur_51_105" result="shape"/>
</filter>
</defs>
</svg>
