<svg width="61" height="34" viewBox="0 0 61 34" fill="none" xmlns="http://www.w3.org/2000/svg">
<g filter="url(#filter0_b_51_105)">
<path d="M24.4 0.0159998V8.464H11.056V13.168H20.656V21.184H11.056V34H0.4V0.0159998H24.4Z" fill="#FF304F"/>
<path d="M60.6014 34H49.9454L38.6654 16.912V34H28.0094V0.0159998H38.6654L49.9454 17.392V0.0159998H60.6014V34Z" fill="#002651"/>
<path d="M24.4 0.0159998H24.65V-0.234H24.4V0.0159998ZM24.4 8.464V8.714H24.65V8.464H24.4ZM11.056 8.464V8.214H10.806V8.464H11.056ZM11.056 13.168H10.806V13.418H11.056V13.168ZM20.656 13.168H20.906V12.918H20.656V13.168ZM20.656 21.184V21.434H20.906V21.184H20.656ZM11.056 21.184V20.934H10.806V21.184H11.056ZM11.056 34V34.25H11.306V34H11.056ZM0.4 34H0.15V34.25H0.4V34ZM0.4 0.0159998V-0.234H0.15V0.0159998H0.4ZM24.15 0.0159998V8.464H24.65V0.0159998H24.15ZM24.4 8.214H11.056V8.714H24.4V8.214ZM10.806 8.464V13.168H11.306V8.464H10.806ZM11.056 13.418H20.656V12.918H11.056V13.418ZM20.406 13.168V21.184H20.906V13.168H20.406ZM20.656 20.934H11.056V21.434H20.656V20.934ZM10.806 21.184V34H11.306V21.184H10.806ZM11.056 33.75H0.4V34.25H11.056V33.75ZM0.65 34V0.0159998H0.15V34H0.65ZM0.4 0.266H24.4V-0.234H0.4V0.266ZM60.6014 34V34.25H60.8514V34H60.6014ZM49.9454 34L49.7367 34.1377L49.8108 34.25H49.9454V34ZM38.6654 16.912L38.874 16.7743L38.4154 16.0795V16.912H38.6654ZM38.6654 34V34.25H38.9154V34H38.6654ZM28.0094 34H27.7594V34.25H28.0094V34ZM28.0094 0.0159998V-0.234H27.7594V0.0159998H28.0094ZM38.6654 0.0159998L38.8751 -0.120125L38.8011 -0.234H38.6654V0.0159998ZM49.9454 17.392L49.7357 17.5281L50.1954 18.2362V17.392H49.9454ZM49.9454 0.0159998V-0.234H49.6954V0.0159998H49.9454ZM60.6014 0.0159998H60.8514V-0.234H60.6014V0.0159998ZM60.6014 33.75H49.9454V34.25H60.6014V33.75ZM50.154 33.8623L38.874 16.7743L38.4567 17.0497L49.7367 34.1377L50.154 33.8623ZM38.4154 16.912V34H38.9154V16.912H38.4154ZM38.6654 33.75H28.0094V34.25H38.6654V33.75ZM28.2594 34V0.0159998H27.7594V34H28.2594ZM28.0094 0.266H38.6654V-0.234H28.0094V0.266ZM38.4557 0.152125L49.7357 17.5281L50.1551 17.2559L38.8751 -0.120125L38.4557 0.152125ZM50.1954 17.392V0.0159998H49.6954V17.392H50.1954ZM49.9454 0.266H60.6014V-0.234H49.9454V0.266ZM60.3514 0.0159998V34H60.8514V0.0159998H60.3514Z" fill="black" fill-opacity="0.4"/>
</g>
<defs>
<filter id="filter0_b_51_105" x="-4.59998" y="-4.98438" width="70.2013" height="43.9844" filterUnits="userSpaceOnUse" color-interpolation-filters="sRGB">
<feFlood flood-opacity="0" result="BackgroundImageFix"/>
<feGaussianBlur in="BackgroundImage" stdDeviation="2.5"/>
<feComposite in2="SourceAlpha" operator="in" result="effect1_backgroundBlur_51_105"/>
<feBlend mode="normal" in="SourceGraphic" in2="effect1_backgroundBlur_51_105" result="shape"/>
</filter>
</defs>
</svg>
